<svg width="16" height="16" viewBox="0 0 16 16" fill="none" xmlns="http://www.w3.org/2000/svg">
<g clip-path="url(#clip0)">
<path d="M15.5596 4.4406L14.119 5.88123C13.9721 6.0281 13.7346 6.0281 13.5877 5.88123L10.119 2.41248C9.97211 2.2656 9.97211 2.0281 10.119 1.88123L11.5596 0.440601C12.144 -0.143774 13.094 -0.143774 13.6815 0.440601L15.5596 2.31873C16.1471 2.9031 16.1471 3.8531 15.5596 4.4406ZM8.88149 3.11873L0.675236 11.325L0.0127361 15.1219C-0.0778889 15.6344 0.368986 16.0781 0.881486 15.9906L4.67836 15.325L12.8846 7.11873C13.0315 6.97185 13.0315 6.73435 12.8846 6.58748L9.41586 3.11873C9.26586 2.97185 9.02836 2.97185 8.88149 3.11873V3.11873ZM3.87836 10.6219C3.70649 10.45 3.70649 10.175 3.87836 10.0031L8.69086 5.1906C8.86274 5.01873 9.13774 5.01873 9.30961 5.1906C9.48149 5.36248 9.48149 5.63748 9.30961 5.80935L4.49711 10.6219C4.32524 10.7937 4.05024 10.7937 3.87836 10.6219V10.6219ZM2.75024 13.25H4.25024V14.3843L2.23461 14.7375L1.26274 13.7656L1.61586 11.75H2.75024V13.25Z" fill="currentColor"/>
</g>
<defs>
<clipPath id="clip0">
<rect width="16" height="16" fill="white"/>
</clipPath>
</defs>
</svg>
