<svg width="16" height="16" viewBox="0 0 16 16" fill="none" xmlns="http://www.w3.org/2000/svg">
<g clip-path="url(#clip0)">
<path d="M15.5607 8.56066C16.1465 7.97488 16.1465 7.02513 15.5607 6.43935L10.5607 1.43935C9.9749 0.853566 9.02518 0.853535 8.43934 1.43935L0.439336 9.43935C-0.146445 10.0251 -0.146445 10.9749 0.439336 11.5607L3.43934 14.5607C3.72065 14.842 4.10219 15 4.50002 15H15.625C15.8321 15 16 14.8321 16 14.625V13.375C16 13.1679 15.8321 13 15.625 13H11.1214L15.5607 8.56066V8.56066ZM6.10359 6.60357L10.3965 10.8965L8.29293 13H4.70715L2.20715 10.5L6.10359 6.60357V6.60357Z" fill="currentColor"/>
</g>
<defs>
<clipPath id="clip0">
<rect width="16" height="16" fill="white"/>
</clipPath>
</defs>
</svg>
