<svg width="16" height="16" viewBox="0 0 16 16" fill="none" xmlns="http://www.w3.org/2000/svg">
<g clip-path="url(#clip0)">
<path d="M15.7403 5.93237L10.2402 1.18284C9.75878 0.76706 9 1.10459 9 1.75047V4.25212C3.98035 4.30959 1.90735e-06 5.31562 1.90735e-06 10.0727C1.90735e-06 11.9927 1.23691 13.8948 2.60416 14.8893C3.03082 15.1997 3.63888 14.8102 3.48156 14.3071C2.06456 9.77547 4.15366 8.5724 9 8.50265V11.25C9 11.8969 9.75938 12.2329 10.2402 11.8176L15.7403 7.06762C16.0863 6.76881 16.0868 6.23159 15.7403 5.93237V5.93237Z" fill="currentColor"/>
</g>
<defs>
<clipPath id="clip0">
<rect width="16" height="16" fill="white" transform="matrix(-1 0 0 1 16 0)"/>
</clipPath>
</defs>
</svg>
